<?xml version='1.0' encoding='utf-8'?>
<score-partwise version="3.1"><part-list><score-part id="P1"><part-name>Music</part-name></score-part></part-list><part id="P1"><measure number="1"><attributes><divisions>1</divisions><time><beats>4</beats><beat-type>4</beat-type></time><key><fifths>0</fifths></key><clef><sign>G</sign><line>2</line></clef></attributes><note><pitch><step>C</step><octave>4</octave></pitch><duration>6</duration><type>16th</type><dot /></note><note><pitch><step>C</step><octave>3</octave></pitch><duration>24</duration><type>quarter</type><dot /><chord /></note><note><rest /><duration>9</duration><type>eighth</type><dot /></note><note><pitch><step>C</step><octave>4</octave></pitch><duration>6</duration><type>16th</type><dot /></note><note><rest /><duration>9</duration><type>eighth</type><dot /></note><note><pitch><step>A</step><octave>2</octave></pitch><duration>24</duration><type>quarter</type><dot /></note><note><pitch><step>C</step><octave>4</octave></pitch><duration>24</duration><type>quarter</type><dot /><chord /></note><note><rest /><duration>5</duration><type>16th</type><dot /></note><note><pitch><step>F</step><octave>2</octave></pitch><duration>24</duration><type>quarter</type><dot /></note></measure><measure number="2"><attributes><divisions>1</divisions><time><beats>4</beats><beat-type>4</beat-type></time><key><fifths>0</fifths></key><clef><sign>G</sign><line>2</line></clef></attributes><note><pitch><step>C</step><octave>4</octave></pitch><duration>6</duration><type>16th</type><dot /></note><note><pitch><step>B</step><octave>3</octave></pitch><duration>8</duration><type>eighth</type></note><note><rest /><duration>3</duration><type>32nd</type><dot /></note><note><pitch><step>A</step><octave>3</octave></pitch><duration>6</duration><type>16th</type><dot /></note><note><pitch><step>B</step><octave>3</octave></pitch><duration>8</duration><type>eighth</type></note><note><pitch><step>G</step><octave>2</octave></pitch><duration>24</duration><type>quarter</type><dot /><chord /></note><note><rest /><duration>2</duration><type>32nd</type></note><note><pitch><step>C</step><octave>4</octave></pitch><duration>6</duration><type>16th</type><dot /></note><note><pitch><step>D</step><octave>4</octave></pitch><duration>6</duration><type>16th</type><dot /></note><note><rest /><duration>9</duration><type>eighth</type><dot /></note><note><pitch><step>E</step><octave>4</octave></pitch><duration>8</duration><type>eighth</type></note><note><pitch><step>C</step><octave>3</octave></pitch><duration>24</duration><type>quarter</type><dot /><chord /></note></measure><measure number="3"><attributes><divisions>1</divisions><time><beats>4</beats><beat-type>4</beat-type></time><key><fifths>0</fifths></key><clef><sign>G</sign><line>2</line></clef></attributes><note><rest /><duration>6</duration><type>16th</type><dot /></note><note><pitch><step>E</step><octave>4</octave></pitch><duration>6</duration><type>16th</type><dot /></note><note><rest /><duration>9</duration><type>eighth</type><dot /></note><note><pitch><step>A</step><octave>2</octave></pitch><duration>24</duration><type>quarter</type><dot /></note><note><pitch><step>E</step><octave>4</octave></pitch><duration>24</duration><type>quarter</type><dot /><chord /></note><note><rest /><duration>7</duration><type>16th</type><dot /></note><note><pitch><step>F</step><octave>2</octave></pitch><duration>24</duration><type>quarter</type><dot /></note></measure><measure number="4"><attributes><divisions>1</divisions><time><beats>4</beats><beat-type>4</beat-type></time><key><fifths>0</fifths></key><clef><sign>G</sign><line>2</line></clef></attributes><note><pitch><step>E</step><octave>4</octave></pitch><duration>4</duration><type>16th</type></note><note><rest /><duration>2</duration><type>32nd</type></note><note><pitch><step>D</step><octave>4</octave></pitch><duration>8</duration><type>eighth</type></note><note><rest /><duration>1</duration><type>64th</type></note><note><pitch><step>C</step><octave>4</octave></pitch><duration>6</duration><type>16th</type><dot /></note><note><pitch><step>D</step><octave>4</octave></pitch><duration>12</duration><type>eighth</type><dot /></note><note><pitch><step>G</step><octave>2</octave></pitch><duration>24</duration><type>quarter</type><dot /><chord /></note><note><pitch><step>E</step><octave>4</octave></pitch><duration>4</duration><type>16th</type></note><note><rest /><duration>2</duration><type>32nd</type></note><note><pitch><step>F</step><octave>4</octave></pitch><duration>4</duration><type>16th</type></note><note><rest /><duration>11</duration><type>eighth</type><dot /></note><note><pitch><step>C</step><octave>3</octave></pitch><duration>24</duration><type>quarter</type><dot /></note><note><pitch><step>G</step><octave>4</octave></pitch><duration>24</duration><type>quarter</type><dot /><chord /></note></measure><measure number="5"><attributes><divisions>1</divisions><time><beats>4</beats><beat-type>4</beat-type></time><key><fifths>0</fifths></key><clef><sign>G</sign><line>2</line></clef></attributes><note><rest /><duration>5</duration><type>16th</type><dot /></note><note><pitch><step>A</step><octave>2</octave></pitch><duration>24</duration><type>quarter</type><dot /></note><note><pitch><step>C</step><octave>4</octave></pitch><duration>32</duration><type>half</type><chord /></note><note><rest /><duration>7</duration><type>16th</type><dot /></note><note><pitch><step>D</step><octave>3</octave></pitch><duration>24</duration><type>quarter</type><dot /></note><note><pitch><step>A</step><octave>4</octave></pitch><duration>4</duration><type>16th</type></note></measure><measure number="6"><attributes><divisions>1</divisions><time><beats>4</beats><beat-type>4</beat-type></time><key><fifths>0</fifths></key><clef><sign>G</sign><line>2</line></clef></attributes><note><rest /><duration>1</duration><type>64th</type></note><note><pitch><step>G</step><octave>4</octave></pitch><duration>8</duration><type>eighth</type></note><note><rest /><duration>2</duration><type>32nd</type></note><note><pitch><step>F</step><octave>4</octave></pitch><duration>4</duration><type>16th</type></note><note><pitch><step>E</step><octave>4</octave></pitch><duration>16</duration><type>quarter</type></note><note><pitch><step>G</step><octave>2</octave></pitch><duration>24</duration><type>quarter</type><dot /><chord /></note><note><pitch><step>D</step><octave>4</octave></pitch><duration>12</duration><type>eighth</type><dot /></note><note><rest /><duration>2</duration><type>32nd</type></note><note><pitch><step>C</step><octave>3</octave></pitch><duration>24</duration><type>quarter</type><dot /></note><note><pitch><step>C</step><octave>4</octave></pitch><duration>24</duration><type>quarter</type><dot /><chord /></note></measure><measure number="7"><attributes><divisions>1</divisions><time><beats>4</beats><beat-type>4</beat-type></time><key><fifths>0</fifths></key><clef><sign>G</sign><line>2</line></clef></attributes><note><rest /><duration>7</duration><type>16th</type><dot /></note><note><pitch><step>A</step><octave>2</octave></pitch><duration>24</duration><type>quarter</type><dot /></note><note><pitch><step>D</step><octave>4</octave></pitch><duration>6</duration><type>16th</type><dot /></note><note><pitch><step>E</step><octave>4</octave></pitch><duration>6</duration><type>16th</type><dot /></note><note><rest /><duration>3</duration><type>32nd</type><dot /></note><note><pitch><step>F</step><octave>4</octave></pitch><duration>4</duration><type>16th</type></note><note><rest /><duration>1</duration><type>64th</type></note><note><pitch><step>G</step><octave>4</octave></pitch><duration>16</duration><type>quarter</type></note><note><pitch><step>D</step><octave>3</octave></pitch><duration>24</duration><type>quarter</type><dot /><chord /></note></measure><measure number="8"><attributes><divisions>1</divisions><time><beats>4</beats><beat-type>4</beat-type></time><key><fifths>0</fifths></key><clef><sign>G</sign><line>2</line></clef></attributes><note><pitch><step>F</step><octave>4</octave></pitch><duration>8</duration><type>eighth</type></note><note><rest /><duration>3</duration><type>32nd</type><dot /></note><note><pitch><step>E</step><octave>4</octave></pitch><duration>4</duration><type>16th</type></note><note><rest /><duration>1</duration><type>64th</type></note><note><pitch><step>D</step><octave>4</octave></pitch><duration>24</duration><type>quarter</type><dot /></note><note><pitch><step>G</step><octave>2</octave></pitch><duration>24</duration><type>quarter</type><dot /><chord /></note><note><rest /><duration>5</duration><type>16th</type><dot /></note><note><pitch><step>C</step><octave>4</octave></pitch><duration>8</duration><type>eighth</type></note><note><pitch><step>C</step><octave>3</octave></pitch><duration>24</duration><type>quarter</type><dot /><chord /></note><note><rest /><duration>7</duration><type>16th</type><dot /></note><note><pitch><step>C</step><octave>4</octave></pitch><duration>6</duration><type>16th</type><dot /></note></measure><measure number="9"><attributes><divisions>1</divisions><time><beats>4</beats><beat-type>4</beat-type></time><key><fifths>0</fifths></key><clef><sign>G</sign><line>2</line></clef></attributes><note><rest /><duration>10</duration><type>eighth</type><dot /></note><note><pitch><step>A</step><octave>2</octave></pitch><duration>12</duration><type>eighth</type><dot /></note><note><pitch><step>C</step><octave>4</octave></pitch><duration>24</duration><type>quarter</type><dot /><chord /></note><note><rest /><duration>18</duration><type>quarter</type><dot /></note><note><pitch><step>F</step><octave>2</octave></pitch><duration>24</duration><type>quarter</type><dot /></note></measure><measure number="10"><attributes><divisions>1</divisions><time><beats>4</beats><beat-type>4</beat-type></time><key><fifths>0</fifths></key><clef><sign>G</sign><line>2</line></clef></attributes><note><pitch><step>C</step><octave>4</octave></pitch><duration>4</duration><type>16th</type></note><note><rest /><duration>1</duration><type>64th</type></note><note><pitch><step>B</step><octave>3</octave></pitch><duration>8</duration><type>eighth</type></note><note><rest /><duration>1</duration><type>64th</type></note><note><pitch><step>A</step><octave>3</octave></pitch><duration>6</duration><type>16th</type><dot /></note><note><pitch><step>B</step><octave>3</octave></pitch><duration>8</duration><type>eighth</type></note><note><pitch><step>G</step><octave>2</octave></pitch><duration>24</duration><type>quarter</type><dot /><chord /></note><note><rest /><duration>2</duration><type>32nd</type></note><note><pitch><step>C</step><octave>4</octave></pitch><duration>4</duration><type>16th</type></note><note><rest /><duration>1</duration><type>64th</type></note><note><pitch><step>D</step><octave>4</octave></pitch><duration>8</duration><type>eighth</type></note><note><rest /><duration>7</duration><type>16th</type><dot /></note><note><pitch><step>E</step><octave>4</octave></pitch><duration>8</duration><type>eighth</type></note><note><pitch><step>C</step><octave>3</octave></pitch><duration>24</duration><type>quarter</type><dot /><chord /></note></measure><measure number="11"><attributes><divisions>1</divisions><time><beats>4</beats><beat-type>4</beat-type></time><key><fifths>0</fifths></key><clef><sign>G</sign><line>2</line></clef></attributes><note><rest /><duration>7</duration><type>16th</type><dot /></note><note><pitch><step>E</step><octave>4</octave></pitch><duration>4</duration><type>16th</type></note><note><rest /><duration>10</duration><type>eighth</type><dot /></note><note><pitch><step>A</step><octave>2</octave></pitch><duration>16</duration><type>quarter</type></note><note><pitch><step>E</step><octave>4</octave></pitch><duration>16</duration><type>quarter</type><chord /></note><note><rest /><duration>14</duration><type>eighth</type><dot /></note><note><pitch><step>F</step><octave>2</octave></pitch><duration>24</duration><type>quarter</type><dot /></note></measure><measure number="12"><attributes><divisions>1</divisions><time><beats>4</beats><beat-type>4</beat-type></time><key><fifths>0</fifths></key><clef><sign>G</sign><line>2</line></clef></attributes><note><pitch><step>E</step><octave>4</octave></pitch><duration>4</duration><type>16th</type></note><note><rest /><duration>1</duration><type>64th</type></note><note><pitch><step>D</step><octave>4</octave></pitch><duration>8</duration><type>eighth</type></note><note><rest /><duration>2</duration><type>32nd</type></note><note><pitch><step>C</step><octave>4</octave></pitch><duration>4</duration><type>16th</type></note><note><rest /><duration>1</duration><type>64th</type></note><note><pitch><step>D</step><octave>4</octave></pitch><duration>8</duration><type>eighth</type></note><note><pitch><step>G</step><octave>2</octave></pitch><duration>16</duration><type>quarter</type><chord /></note><note><rest /><duration>1</duration><type>64th</type></note><note><pitch><step>E</step><octave>4</octave></pitch><duration>4</duration><type>16th</type></note><note><rest /><duration>1</duration><type>64th</type></note><note><pitch><step>F</step><octave>4</octave></pitch><duration>12</duration><type>eighth</type><dot /></note><note><rest /><duration>3</duration><type>32nd</type><dot /></note><note><pitch><step>C</step><octave>3</octave></pitch><duration>24</duration><type>quarter</type><dot /></note><note><pitch><step>G</step><octave>4</octave></pitch><duration>24</duration><type>quarter</type><dot /><chord /></note></measure><measure number="13"><attributes><divisions>1</divisions><time><beats>4</beats><beat-type>4</beat-type></time><key><fifths>0</fifths></key><clef><sign>G</sign><line>2</line></clef></attributes><note><rest /><duration>7</duration><type>16th</type><dot /></note><note><pitch><step>A</step><octave>2</octave></pitch><duration>24</duration><type>quarter</type><dot /></note><note><pitch><step>C</step><octave>4</octave></pitch><duration>32</duration><type>half</type><chord /></note><note><rest /><duration>6</duration><type>16th</type><dot /></note><note><pitch><step>D</step><octave>3</octave></pitch><duration>24</duration><type>quarter</type><dot /></note><note><pitch><step>A</step><octave>4</octave></pitch><duration>4</duration><type>16th</type></note></measure><measure number="14"><attributes><divisions>1</divisions><time><beats>4</beats><beat-type>4</beat-type></time><key><fifths>0</fifths></key><clef><sign>G</sign><line>2</line></clef></attributes><note><pitch><step>G</step><octave>4</octave></pitch><duration>8</duration><type>eighth</type></note><note><rest /><duration>3</duration><type>32nd</type><dot /></note><note><pitch><step>F</step><octave>4</octave></pitch><duration>4</duration><type>16th</type></note><note><pitch><step>E</step><octave>4</octave></pitch><duration>12</duration><type>eighth</type><dot /></note><note><pitch><step>G</step><octave>2</octave></pitch><duration>24</duration><type>quarter</type><dot /><chord /></note><note><rest /><duration>4</duration><type>16th</type></note><note><pitch><step>D</step><octave>4</octave></pitch><duration>12</duration><type>eighth</type><dot /></note><note><rest /><duration>3</duration><type>32nd</type><dot /></note><note><pitch><step>C</step><octave>3</octave></pitch><duration>16</duration><type>quarter</type></note><note><pitch><step>C</step><octave>4</octave></pitch><duration>16</duration><type>quarter</type><chord /></note></measure><measure number="15"><attributes><divisions>1</divisions><time><beats>4</beats><beat-type>4</beat-type></time><key><fifths>0</fifths></key><clef><sign>G</sign><line>2</line></clef></attributes><note><rest /><duration>13</duration><type>eighth</type><dot /></note><note><pitch><step>F</step><octave>2</octave></pitch><duration>16</duration><type>quarter</type></note><note><pitch><step>D</step><octave>4</octave></pitch><duration>4</duration><type>16th</type></note><note><rest /><duration>1</duration><type>64th</type></note><note><pitch><step>E</step><octave>4</octave></pitch><duration>8</duration><type>eighth</type></note><note><rest /><duration>2</duration><type>32nd</type></note><note><pitch><step>F</step><octave>4</octave></pitch><duration>6</duration><type>16th</type><dot /></note><note><pitch><step>G</step><octave>4</octave></pitch><duration>12</duration><type>eighth</type><dot /></note><note><pitch><step>C</step><octave>3</octave></pitch><duration>16</duration><type>quarter</type><chord /></note></measure><measure number="16"><attributes><divisions>1</divisions><time><beats>4</beats><beat-type>4</beat-type></time><key><fifths>0</fifths></key><clef><sign>G</sign><line>2</line></clef></attributes><note><rest /><duration>3</duration><type>32nd</type><dot /></note><note><pitch><step>C</step><octave>4</octave></pitch><duration>48</duration><type>half</type><dot /></note><note><pitch><step>C</step><octave>3</octave></pitch><duration>16</duration><type>quarter</type></note></measure><measure number="17"><attributes><divisions>1</divisions><time><beats>4</beats><beat-type>4</beat-type></time><key><fifths>0</fifths></key><clef><sign>G</sign><line>2</line></clef></attributes><note><rest /><duration>15</duration><type>eighth</type><dot /></note><note><pitch><step>F</step><octave>3</octave></pitch><duration>16</duration><type>quarter</type></note><note><pitch><step>A</step><octave>4</octave></pitch><duration>6</duration><type>16th</type><dot /></note><note><pitch><step>G</step><octave>4</octave></pitch><duration>8</duration><type>eighth</type></note><note><rest /><duration>2</duration><type>32nd</type></note><note><pitch><step>F</step><octave>4</octave></pitch><duration>4</duration><type>16th</type></note><note><rest /><duration>1</duration><type>64th</type></note><note><pitch><step>E</step><octave>3</octave></pitch><duration>16</duration><type>quarter</type></note><note><pitch><step>E</step><octave>4</octave></pitch><duration>24</duration><type>quarter</type><dot /><chord /></note></measure><measure number="18"><attributes><divisions>1</divisions><time><beats>4</beats><beat-type>4</beat-type></time><key><fifths>0</fifths></key><clef><sign>G</sign><line>2</line></clef></attributes><note><rest /><duration>8</duration><type>eighth</type></note><note><pitch><step>D</step><octave>4</octave></pitch><duration>8</duration><type>eighth</type></note><note><pitch><step>A</step><octave>2</octave></pitch><duration>16</duration><type>quarter</type></note><note><pitch><step>C</step><alter>1</alter><octave>4</octave></pitch><duration>24</duration><type>quarter</type><dot /><chord /></note><note><rest /><duration>14</duration><type>eighth</type><dot /></note><note><pitch><step>F</step><alter>1</alter><octave>3</octave></pitch><duration>12</duration><type>eighth</type><dot /></note><note><pitch><step>D</step><octave>4</octave></pitch><duration>24</duration><type>quarter</type><dot /><chord /></note></measure><measure number="19"><attributes><divisions>1</divisions><time><beats>4</beats><beat-type>4</beat-type></time><key><fifths>0</fifths></key><clef><sign>G</sign><line>2</line></clef></attributes><note><rest /><duration>17</duration><type>quarter</type><dot /></note><note><pitch><step>G</step><octave>3</octave></pitch><duration>16</duration><type>quarter</type></note><note><pitch><step>B</step><octave>3</octave></pitch><duration>24</duration><type>quarter</type><dot /><chord /></note><note><rest /><duration>14</duration><type>eighth</type><dot /></note><note><pitch><step>E</step><octave>3</octave></pitch><duration>16</duration><type>quarter</type></note><note><pitch><step>C</step><octave>4</octave></pitch><duration>24</duration><type>quarter</type><dot /><chord /></note></measure><measure number="20"><attributes><divisions>1</divisions><time><beats>4</beats><beat-type>4</beat-type></time><key><fifths>0</fifths></key><clef><sign>G</sign><line>2</line></clef></attributes><note><rest /><duration>15</duration><type>eighth</type><dot /></note><note><pitch><step>D</step><alter>1</alter><octave>3</octave></pitch><duration>12</duration><type>eighth</type><dot /></note><note><pitch><step>A</step><octave>3</octave></pitch><duration>16</duration><type>quarter</type><chord /></note><note><rest /><duration>18</duration><type>quarter</type><dot /></note><note><pitch><step>B</step><octave>3</octave></pitch><duration>12</duration><type>eighth</type><dot /></note><note><pitch><step>D</step><octave>3</octave></pitch><duration>12</duration><type>eighth</type><dot /><chord /></note></measure><measure number="21"><attributes><divisions>1</divisions><time><beats>4</beats><beat-type>4</beat-type></time><key><fifths>0</fifths></key><clef><sign>G</sign><line>2</line></clef></attributes><note><rest /><duration>18</duration><type>quarter</type><dot /></note><note><pitch><step>F</step><octave>3</octave></pitch><duration>8</duration><type>eighth</type></note><note><rest /><duration>2</duration><type>32nd</type></note><note><pitch><step>A</step><octave>4</octave></pitch><duration>4</duration><type>16th</type></note><note><rest /><duration>1</duration><type>64th</type></note><note><pitch><step>G</step><octave>4</octave></pitch><duration>8</duration><type>eighth</type></note><note><rest /><duration>2</duration><type>32nd</type></note><note><pitch><step>F</step><octave>4</octave></pitch><duration>4</duration><type>16th</type></note><note><rest /><duration>1</duration><type>64th</type></note><note><pitch><step>E</step><octave>3</octave></pitch><duration>12</duration><type>eighth</type><dot /></note><note><pitch><step>E</step><octave>4</octave></pitch><duration>24</duration><type>quarter</type><dot /><chord /></note></measure><measure number="22"><attributes><divisions>1</divisions><time><beats>4</beats><beat-type>4</beat-type></time><key><fifths>0</fifths></key><clef><sign>G</sign><line>2</line></clef></attributes><note><rest /><duration>13</duration><type>eighth</type><dot /></note><note><pitch><step>D</step><octave>4</octave></pitch><duration>4</duration><type>16th</type></note><note><pitch><step>A</step><octave>3</octave></pitch><duration>16</duration><type>quarter</type></note><note><pitch><step>C</step><alter>1</alter><octave>4</octave></pitch><duration>32</duration><type>half</type><chord /></note><note><rest /><duration>15</duration><type>eighth</type><dot /></note><note><pitch><step>D</step><octave>4</octave></pitch><duration>24</duration><type>quarter</type><dot /></note><note><pitch><step>F</step><alter>1</alter><octave>3</octave></pitch><duration>24</duration><type>quarter</type><dot /><chord /></note></measure><measure number="23"><attributes><divisions>1</divisions><time><beats>4</beats><beat-type>4</beat-type></time><key><fifths>0</fifths></key><clef><sign>G</sign><line>2</line></clef></attributes><note><rest /><duration>6</duration><type>16th</type><dot /></note><note><pitch><step>B</step><octave>3</octave></pitch><duration>24</duration><type>quarter</type><dot /></note><note><pitch><step>G</step><octave>3</octave></pitch><duration>24</duration><type>quarter</type><dot /><chord /></note><note><rest /><duration>6</duration><type>16th</type><dot /></note><note><pitch><step>E</step><octave>3</octave></pitch><duration>16</duration><type>quarter</type></note><note><pitch><step>C</step><octave>4</octave></pitch><duration>24</duration><type>quarter</type><dot /><chord /></note></measure><measure number="24"><attributes><divisions>1</divisions><time><beats>4</beats><beat-type>4</beat-type></time><key><fifths>0</fifths></key><clef><sign>G</sign><line>2</line></clef></attributes><note><rest /><duration>14</duration><type>eighth</type><dot /></note><note><pitch><step>D</step><alter>1</alter><octave>3</octave></pitch><duration>12</duration><type>eighth</type><dot /></note><note><pitch><step>A</step><octave>3</octave></pitch><duration>24</duration><type>quarter</type><dot /><chord /></note><note><rest /><duration>18</duration><type>quarter</type><dot /></note><note><pitch><step>D</step><octave>3</octave></pitch><duration>16</duration><type>quarter</type></note><note><pitch><step>B</step><octave>3</octave></pitch><duration>24</duration><type>quarter</type><dot /><chord /></note></measure><measure number="25"><attributes><divisions>1</divisions><time><beats>4</beats><beat-type>4</beat-type></time><key><fifths>0</fifths></key><clef><sign>G</sign><line>2</line></clef></attributes><note><rest /><duration>14</duration><type>eighth</type><dot /></note><note><pitch><step>C</step><octave>4</octave></pitch><duration>8</duration><type>eighth</type></note><note><pitch><step>C</step><octave>3</octave></pitch><duration>24</duration><type>quarter</type><dot /><chord /></note><note><rest /><duration>7</duration><type>16th</type><dot /></note><note><pitch><step>C</step><octave>4</octave></pitch><duration>4</duration><type>16th</type></note><note><rest /><duration>11</duration><type>eighth</type><dot /></note><note><pitch><step>A</step><octave>2</octave></pitch><duration>16</duration><type>quarter</type></note><note><pitch><step>C</step><octave>4</octave></pitch><duration>16</duration><type>quarter</type><chord /></note></measure><measure number="26"><attributes><divisions>1</divisions><time><beats>4</beats><beat-type>4</beat-type></time><key><fifths>0</fifths></key><clef><sign>G</sign><line>2</line></clef></attributes><note><rest /><duration>14</duration><type>eighth</type><dot /></note><note><pitch><step>F</step><octave>2</octave></pitch><duration>24</duration><type>quarter</type><dot /></note><note><pitch><step>C</step><octave>4</octave></pitch><duration>6</duration><type>16th</type><dot /></note><note><pitch><step>B</step><octave>3</octave></pitch><duration>8</duration><type>eighth</type></note><note><rest /><duration>2</duration><type>32nd</type></note><note><pitch><step>A</step><octave>3</octave></pitch><duration>4</duration><type>16th</type></note><note><rest /><duration>1</duration><type>64th</type></note><note><pitch><step>B</step><octave>3</octave></pitch><duration>8</duration><type>eighth</type></note><note><pitch><step>G</step><octave>2</octave></pitch><duration>24</duration><type>quarter</type><dot /><chord /></note></measure><measure number="27"><attributes><divisions>1</divisions><time><beats>4</beats><beat-type>4</beat-type></time><key><fifths>0</fifths></key><clef><sign>G</sign><line>2</line></clef></attributes><note><rest /><duration>2</duration><type>32nd</type></note><note><pitch><step>C</step><octave>4</octave></pitch><duration>4</duration><type>16th</type></note><note><rest /><duration>1</duration><type>64th</type></note><note><pitch><step>D</step><octave>4</octave></pitch><duration>16</duration><type>quarter</type></note><note><pitch><step>E</step><octave>4</octave></pitch><duration>8</duration><type>eighth</type></note><note><pitch><step>C</step><octave>3</octave></pitch><duration>24</duration><type>quarter</type><dot /><chord /></note><note><rest /><duration>7</duration><type>16th</type><dot /></note><note><pitch><step>E</step><octave>4</octave></pitch><duration>4</duration><type>16th</type></note><note><rest /><duration>11</duration><type>eighth</type><dot /></note><note><pitch><step>A</step><octave>2</octave></pitch><duration>12</duration><type>eighth</type><dot /></note><note><pitch><step>E</step><octave>4</octave></pitch><duration>12</duration><type>eighth</type><dot /><chord /></note></measure><measure number="28"><attributes><divisions>1</divisions><time><beats>4</beats><beat-type>4</beat-type></time><key><fifths>0</fifths></key><clef><sign>G</sign><line>2</line></clef></attributes><note><rest /><duration>18</duration><type>quarter</type><dot /></note><note><pitch><step>F</step><octave>2</octave></pitch><duration>24</duration><type>quarter</type><dot /></note><note><pitch><step>E</step><octave>4</octave></pitch><duration>4</duration><type>16th</type></note><note><rest /><duration>1</duration><type>64th</type></note><note><pitch><step>D</step><octave>4</octave></pitch><duration>6</duration><type>16th</type><dot /></note><note><rest /><duration>4</duration><type>16th</type></note><note><pitch><step>C</step><octave>4</octave></pitch><duration>4</duration><type>16th</type></note><note><rest /><duration>1</duration><type>64th</type></note><note><pitch><step>D</step><octave>4</octave></pitch><duration>8</duration><type>eighth</type></note><note><pitch><step>G</step><octave>2</octave></pitch><duration>16</duration><type>quarter</type><chord /></note></measure><measure number="29"><attributes><divisions>1</divisions><time><beats>4</beats><beat-type>4</beat-type></time><key><fifths>0</fifths></key><clef><sign>G</sign><line>2</line></clef></attributes><note><rest /><duration>2</duration><type>32nd</type></note><note><pitch><step>E</step><octave>4</octave></pitch><duration>4</duration><type>16th</type></note><note><rest /><duration>1</duration><type>64th</type></note><note><pitch><step>F</step><octave>4</octave></pitch><duration>12</duration><type>eighth</type><dot /></note><note><rest /><duration>3</duration><type>32nd</type><dot /></note><note><pitch><step>C</step><octave>3</octave></pitch><duration>24</duration><type>quarter</type><dot /></note><note><pitch><step>G</step><octave>4</octave></pitch><duration>24</duration><type>quarter</type><dot /><chord /></note><note><rest /><duration>6</duration><type>16th</type><dot /></note><note><pitch><step>A</step><octave>2</octave></pitch><duration>24</duration><type>quarter</type><dot /></note><note><pitch><step>C</step><octave>4</octave></pitch><duration>32</duration><type>half</type><chord /></note></measure><measure number="30"><attributes><divisions>1</divisions><time><beats>4</beats><beat-type>4</beat-type></time><key><fifths>0</fifths></key><clef><sign>G</sign><line>2</line></clef></attributes><note><rest /><duration>6</duration><type>16th</type><dot /></note><note><pitch><step>D</step><octave>3</octave></pitch><duration>12</duration><type>eighth</type><dot /></note><note><pitch><step>A</step><octave>4</octave></pitch><duration>4</duration><type>16th</type></note><note><rest /><duration>1</duration><type>64th</type></note><note><pitch><step>G</step><octave>4</octave></pitch><duration>8</duration><type>eighth</type></note><note><rest /><duration>2</duration><type>32nd</type></note><note><pitch><step>F</step><octave>4</octave></pitch><duration>4</duration><type>16th</type></note><note><rest /><duration>1</duration><type>64th</type></note><note><pitch><step>E</step><octave>4</octave></pitch><duration>12</duration><type>eighth</type><dot /></note><note><pitch><step>G</step><octave>3</octave></pitch><duration>16</duration><type>quarter</type><chord /></note><note><rest /><duration>3</duration><type>32nd</type><dot /></note><note><pitch><step>D</step><octave>4</octave></pitch><duration>8</duration><type>eighth</type></note></measure><measure number="31"><attributes><divisions>1</divisions><time><beats>4</beats><beat-type>4</beat-type></time><key><fifths>0</fifths></key><clef><sign>G</sign><line>2</line></clef></attributes><note><rest /><duration>7</duration><type>16th</type><dot /></note><note><pitch><step>E</step><octave>3</octave></pitch><duration>16</duration><type>quarter</type></note><note><pitch><step>E</step><octave>4</octave></pitch><duration>64</duration><type>whole</type><chord /></note><note><rest /><duration>14</duration><type>eighth</type><dot /></note><note><pitch><step>C</step><alter>1</alter><octave>3</octave></pitch><duration>12</duration><type>eighth</type><dot /></note></measure><measure number="32"><attributes><divisions>1</divisions><time><beats>4</beats><beat-type>4</beat-type></time><key><fifths>0</fifths></key><clef><sign>G</sign><line>2</line></clef></attributes><note><rest /><duration>18</duration><type>quarter</type><dot /></note><note><pitch><step>D</step><octave>3</octave></pitch><duration>24</duration><type>quarter</type><dot /></note><note><pitch><step>F</step><octave>4</octave></pitch><duration>6</duration><type>16th</type><dot /></note><note><pitch><step>E</step><octave>4</octave></pitch><duration>8</duration><type>eighth</type></note><note><rest /><duration>2</duration><type>32nd</type></note><note><pitch><step>D</step><octave>4</octave></pitch><duration>4</duration><type>16th</type></note><note><rest /><duration>1</duration><type>64th</type></note><note><pitch><step>C</step><octave>4</octave></pitch><duration>12</duration><type>eighth</type><dot /></note><note><pitch><step>F</step><octave>2</octave></pitch><duration>24</duration><type>quarter</type><dot /><chord /></note></measure><measure number="33"><attributes><divisions>1</divisions><time><beats>4</beats><beat-type>4</beat-type></time><key><fifths>0</fifths></key><clef><sign>G</sign><line>2</line></clef></attributes><note><rest /><duration>3</duration><type>32nd</type><dot /></note><note><pitch><step>B</step><octave>3</octave></pitch><duration>12</duration><type>eighth</type><dot /></note></measure></part></score-partwise>